<?xml version="1.0" encoding="UTF-8"?>
<!DOCTYPE svg PUBLIC "-//W3C//DTD SVG 1.1//EN" "http://www.w3.org/Graphics/SVG/1.1/DTD/svg11.dtd">
<svg xmlns="http://www.w3.org/2000/svg" version="1.1" width="368px" height="294px" style="shape-rendering:geometricPrecision; text-rendering:geometricPrecision; image-rendering:optimizeQuality; fill-rule:evenodd; clip-rule:evenodd" xmlns:xlink="http://www.w3.org/1999/xlink">
<g><path style="opacity:0.896" fill="#f84f46" d="M 111.5,65.5 C 109.95,66.4408 108.284,67.1075 106.5,67.5C 105.92,65.2512 104.587,63.5846 102.5,62.5C 103.79,57.2332 107.123,54.5666 112.5,54.5C 112.756,58.2693 112.423,61.9359 111.5,65.5 Z"/></g>
<g><path style="opacity:0.934" fill="#f74e45" d="M 99.5,63.5 C 102.47,68.8805 100.804,71.5472 94.5,71.5C 92.1838,70.1944 89.8505,68.8611 87.5,67.5C 83.1835,61.6499 84.8501,59.4833 92.5,61C 95.0301,61.3793 97.3635,62.2126 99.5,63.5 Z"/></g>
<g><path style="opacity:0.962" fill="#5c2548" d="M 111.5,65.5 C 119.493,66.3245 122.66,70.6578 121,78.5C 119.64,81.0226 117.807,83.0226 115.5,84.5C 114.577,83.6971 113.577,83.5304 112.5,84C 111.697,88.1137 109.363,90.947 105.5,92.5C 104.386,91.277 104.219,89.9437 105,88.5C 110.099,85.1465 109.599,83.8131 103.5,84.5C 104.051,81.1933 104.384,77.8599 104.5,74.5C 105.268,72.2854 105.935,69.9521 106.5,67.5C 108.284,67.1075 109.95,66.4408 111.5,65.5 Z"/></g>
<g><path style="opacity:0.974" fill="#5b2448" d="M 87.5,67.5 C 89.8505,68.8611 92.1838,70.1944 94.5,71.5C 95.209,72.404 96.209,72.7373 97.5,72.5C 97.5,74.1667 97.5,75.8333 97.5,77.5C 96.5612,84.9831 94.2279,91.9831 90.5,98.5C 87.8589,97.7369 85.1922,97.5702 82.5,98C 77.4626,101.034 77.4626,104.367 82.5,108C 85.8984,109.916 89.5651,110.916 93.5,111C 92.2068,111.49 90.8734,111.657 89.5,111.5C 90.6311,119.186 90.6311,126.853 89.5,134.5C 87.901,134.232 86.5676,134.566 85.5,135.5C 84.209,135.263 83.209,135.596 82.5,136.5C 78.6681,137.818 75.5014,140.152 73,143.5C 70.0788,148.341 67.4121,153.341 65,158.5C 59.3211,176.906 53.8211,195.239 48.5,213.5C 40.9945,205.474 38.8279,196.141 42,185.5C 44.936,180.627 47.6027,175.627 50,170.5C 47.2136,154.215 52.547,141.549 66,132.5C 69.5953,126.539 71.4286,120.039 71.5,113C 70.5601,106.528 69.8935,100.028 69.5,93.5C 69.5793,80.6588 75.5793,71.9921 87.5,67.5 Z"/></g>
<g><path style="opacity:1" fill="#ed6f6a" d="M 102.5,62.5 C 104.587,63.5846 105.92,65.2512 106.5,67.5C 105.935,69.9521 105.268,72.2854 104.5,74.5C 104.5,73.1667 104.5,71.8333 104.5,70.5C 100.158,70.8893 97.8251,73.2226 97.5,77.5C 97.5,75.8333 97.5,74.1667 97.5,72.5C 96.209,72.7373 95.209,72.404 94.5,71.5C 100.804,71.5472 102.47,68.8805 99.5,63.5C 100.391,62.8902 101.391,62.5569 102.5,62.5 Z"/></g>
<g><path style="opacity:1" fill="#f34e47" d="M 104.5,74.5 C 104.384,77.8599 104.051,81.1933 103.5,84.5C 101.891,90.1055 98.8911,94.9388 94.5,99C 92.9343,99.765 91.6009,99.5983 90.5,98.5C 94.2279,91.9831 96.5612,84.9831 97.5,77.5C 97.8251,73.2226 100.158,70.8893 104.5,70.5C 104.5,71.8333 104.5,73.1667 104.5,74.5 Z"/></g>
<g><path style="opacity:0.992" fill="#f1a99f" d="M 115.5,84.5 C 116.151,88.3083 118.151,91.1416 121.5,93C 120.444,97.3052 120.444,101.639 121.5,106C 122.334,112.997 119.334,116.164 112.5,115.5C 109.5,115.5 106.5,115.5 103.5,115.5C 103.33,116.822 103.663,117.989 104.5,119C 106.867,120.845 109.533,122.011 112.5,122.5C 113.632,126.019 114.632,129.686 115.5,133.5C 116.265,137.598 117.098,141.598 118,145.5C 114.589,144.707 111.089,144.207 107.5,144C 104.447,142.473 101.447,140.973 98.5,139.5C 94.9695,135.997 90.6361,134.663 85.5,135.5C 86.5676,134.566 87.901,134.232 89.5,134.5C 90.6311,126.853 90.6311,119.186 89.5,111.5C 90.8734,111.657 92.2068,111.49 93.5,111C 89.5651,110.916 85.8984,109.916 82.5,108C 77.4626,104.367 77.4626,101.034 82.5,98C 85.1922,97.5702 87.8589,97.7369 90.5,98.5C 91.6009,99.5983 92.9343,99.765 94.5,99C 98.8911,94.9388 101.891,90.1055 103.5,84.5C 109.599,83.8131 110.099,85.1465 105,88.5C 104.219,89.9437 104.386,91.277 105.5,92.5C 109.363,90.947 111.697,88.1137 112.5,84C 113.577,83.5304 114.577,83.6971 115.5,84.5 Z"/></g>
<g><path style="opacity:1" fill="#693150" d="M 112.5,89.5 C 113.5,89.5 114.5,89.5 115.5,89.5C 115.183,93.1646 113.183,94.6646 109.5,94C 111.141,92.871 112.141,91.371 112.5,89.5 Z"/></g>
<g><path style="opacity:0.978" fill="#fdce32" d="M 243.5,32.5 C 290.464,30.4663 316.464,52.7996 321.5,99.5C 327.025,102.532 328.525,106.865 326,112.5C 318.373,131.915 305.873,147.415 288.5,159C 285.173,161.133 282.006,160.966 279,158.5C 248.259,168.807 222.593,161.474 202,136.5C 183.108,105.211 185.941,76.0447 210.5,49C 220.219,40.8071 231.219,35.3071 243.5,32.5 Z"/></g>
<g><path style="opacity:1" fill="#f3ada3" d="M 240.5,130.5 C 232.093,135.414 223.093,138.747 213.5,140.5C 209.796,130.386 206.463,120.053 203.5,109.5C 204.482,110.141 205.482,110.807 206.5,111.5C 208.687,109.578 211.02,107.912 213.5,106.5C 213.56,107.043 213.893,107.376 214.5,107.5C 215.176,106.398 215.842,105.398 216.5,104.5C 217.999,106.49 218.832,108.823 219,111.5C 219.391,106.146 219.891,100.812 220.5,95.5C 221.459,92.2478 222.959,89.2478 225,86.5C 226,85.1667 227,85.1667 228,86.5C 228.743,102.138 232.91,116.805 240.5,130.5 Z"/></g>
<g><path style="opacity:1" fill="#f0a9a1" d="M 247.5,58.5 C 250.935,59.4439 254.268,60.7772 257.5,62.5C 258.711,61.7261 258.711,60.8928 257.5,60C 258.167,59.3333 258.833,59.3333 259.5,60C 261.389,62.9586 263.389,65.7919 265.5,68.5C 267.827,65.5061 270.494,62.8394 273.5,60.5C 280.162,59.9973 282.662,62.9973 281,69.5C 279.854,71.6438 278.354,73.4772 276.5,75C 279.016,78.6816 282.016,81.8482 285.5,84.5C 280.543,90.6279 275.376,96.6279 270,102.5C 268.476,100.102 266.976,97.7686 265.5,95.5C 264.431,93.0313 263.098,90.6979 261.5,88.5C 265.049,87.0433 266.216,84.3766 265,80.5C 263.035,82.5503 260.868,84.217 258.5,85.5C 254.888,86.5114 251.221,86.6781 247.5,86C 243.234,84.6344 241.734,81.8011 243,77.5C 246.264,74.942 247.098,71.7754 245.5,68C 247.225,65.1143 247.892,61.9477 247.5,58.5 Z"/></g>
<g><path style="opacity:1" fill="#fefdfd" d="M 313.5,99.5 C 305.051,92.9409 295.718,87.9409 285.5,84.5C 282.016,81.8482 279.016,78.6816 276.5,75C 278.354,73.4772 279.854,71.6438 281,69.5C 282.662,62.9973 280.162,59.9973 273.5,60.5C 273.607,55.7898 273.774,51.1231 274,46.5C 270.706,41.4674 266.54,40.4674 261.5,43.5C 256.337,39.0001 252.004,39.6668 248.5,45.5C 241.599,45.5646 239.099,48.898 241,55.5C 242.509,57.9193 244.675,58.9193 247.5,58.5C 247.892,61.9477 247.225,65.1143 245.5,68C 247.098,71.7754 246.264,74.942 243,77.5C 241.734,81.8011 243.234,84.6344 247.5,86C 251.221,86.6781 254.888,86.5114 258.5,85.5C 259.167,86.8333 260.167,87.8333 261.5,88.5C 263.098,90.6979 264.431,93.0313 265.5,95.5C 263.741,100.774 260.574,105.107 256,108.5C 250.198,117.702 246.531,127.702 245,138.5C 243.235,135.968 241.735,133.301 240.5,130.5C 232.91,116.805 228.743,102.138 228,86.5C 227,85.1667 226,85.1667 225,86.5C 222.959,89.2478 221.459,92.2478 220.5,95.5C 220.167,95.5 219.833,95.5 219.5,95.5C 218.919,93.0026 217.419,91.3359 215,90.5C 213.301,90.3866 212.134,91.0532 211.5,92.5C 211.167,92.5 210.833,92.5 210.5,92.5C 207.45,94.5491 205.117,97.2157 203.5,100.5C 202.12,100.962 201.453,101.962 201.5,103.5C 201.878,105.717 202.545,107.717 203.5,109.5C 206.463,120.053 209.796,130.386 213.5,140.5C 213.833,142.5 214.167,144.5 214.5,146.5C 192.224,126.399 186.057,102.065 196,73.5C 208.669,46.7454 229.836,33.5788 259.5,34C 287.318,36.826 306.151,51.326 316,77.5C 318.318,84.401 319.152,91.401 318.5,98.5C 316.453,97.0961 314.787,97.4294 313.5,99.5 Z"/></g>
<g><path style="opacity:1" fill="#efa8a2" d="M 210.5,92.5 C 211.651,95.4744 212.817,98.4744 214,101.5C 214.78,103.387 214.613,105.054 213.5,106.5C 209.532,98.366 208.865,98.5326 211.5,107C 211.167,107.167 210.833,107.333 210.5,107.5C 207.785,105.452 205.452,103.118 203.5,100.5C 205.117,97.2157 207.45,94.5491 210.5,92.5 Z"/></g>
<g><path style="opacity:1" fill="#f2aca3" d="M 219.5,95.5 C 219.323,98.984 218.323,101.984 216.5,104.5C 215.204,100.261 213.538,96.2613 211.5,92.5C 212.134,91.0532 213.301,90.3866 215,90.5C 217.419,91.3359 218.919,93.0026 219.5,95.5 Z"/></g>
<g><path style="opacity:1" fill="#693151" d="M 261.5,88.5 C 260.167,87.8333 259.167,86.8333 258.5,85.5C 260.868,84.217 263.035,82.5503 265,80.5C 266.216,84.3766 265.049,87.0433 261.5,88.5 Z"/></g>
<g><path style="opacity:1" fill="#b05789" d="M 252.5,71.5 C 253.835,74.9936 252.501,76.1603 248.5,75C 250.91,74.9428 252.244,73.7761 252.5,71.5 Z"/></g>
<g><path style="opacity:1" fill="#60294b" d="M 249.5,63.5 C 251.308,63.4914 252.975,63.9914 254.5,65C 253.667,65.1667 252.833,65.3333 252,65.5C 250.624,65.3158 249.791,64.6491 249.5,63.5 Z"/></g>
<g><path style="opacity:1" fill="#5e274b" d="M 273.5,60.5 C 270.494,62.8394 267.827,65.5061 265.5,68.5C 263.389,65.7919 261.389,62.9586 259.5,60C 258.833,59.3333 258.167,59.3333 257.5,60C 258.711,60.8928 258.711,61.7261 257.5,62.5C 254.268,60.7772 250.935,59.4439 247.5,58.5C 244.675,58.9193 242.509,57.9193 241,55.5C 239.099,48.898 241.599,45.5646 248.5,45.5C 252.004,39.6668 256.337,39.0001 261.5,43.5C 266.54,40.4674 270.706,41.4674 274,46.5C 273.774,51.1231 273.607,55.7898 273.5,60.5 Z"/></g>
<g><path style="opacity:0.988" fill="#f2aba1" d="M 155.5,104.5 C 157.128,109.09 159.295,113.423 162,117.5C 160.834,113.479 159.334,109.479 157.5,105.5C 158.251,104.427 159.251,104.26 160.5,105C 172.014,123.536 179.18,143.703 182,165.5C 183.675,178.447 184.509,191.447 184.5,204.5C 172.175,205.101 159.841,206.101 147.5,207.5C 145.527,203.553 143.527,199.553 141.5,195.5C 141.846,194.304 142.346,194.304 143,195.5C 144.232,190.834 145.399,186.167 146.5,181.5C 147.117,181.611 147.617,181.944 148,182.5C 149.092,164.75 148.425,147.084 146,129.5C 143.513,122.212 141.347,114.879 139.5,107.5C 142.263,107.744 144.429,109.077 146,111.5C 145.233,108.588 144.399,105.588 143.5,102.5C 143.833,101.5 144.167,100.5 144.5,99.5C 146.149,100.648 147.649,101.981 149,103.5C 149.483,102.552 149.649,101.552 149.5,100.5C 152.535,100.347 154.535,101.68 155.5,104.5 Z"/></g>
<g><path style="opacity:1" fill="#f3b3ab" d="M 203.5,100.5 C 204.349,103.035 205.349,105.535 206.5,108C 206.333,108.5 206.167,109 206,109.5C 205.023,108.226 204.189,108.226 203.5,109.5C 202.545,107.717 201.878,105.717 201.5,103.5C 201.453,101.962 202.12,100.962 203.5,100.5 Z"/></g>
<g><path style="opacity:1" fill="#aa5087" d="M 111.5,102.5 C 113.46,103.448 115.46,103.614 117.5,103C 115.121,105.142 113.121,104.976 111.5,102.5 Z"/></g>
<g><path style="opacity:1" fill="#b35b8a" d="M 210.5,92.5 C 210.833,92.5 211.167,92.5 211.5,92.5C 213.538,96.2613 215.204,100.261 216.5,104.5C 215.842,105.398 215.176,106.398 214.5,107.5C 213.893,107.376 213.56,107.043 213.5,106.5C 214.613,105.054 214.78,103.387 214,101.5C 212.817,98.4744 211.651,95.4744 210.5,92.5 Z"/></g>
<g><path style="opacity:1" fill="#6db1ee" d="M 285.5,84.5 C 295.718,87.9409 305.051,92.9409 313.5,99.5C 311.843,103.484 310.176,107.484 308.5,111.5C 309.727,114.731 311.394,117.731 313.5,120.5C 309.17,128.986 303.503,136.486 296.5,143C 292.89,142.964 289.39,142.131 286,140.5C 282.398,143.049 278.898,145.716 275.5,148.5C 271.136,137.639 268.802,126.306 268.5,114.5C 266.401,113.769 264.401,113.769 262.5,114.5C 257.918,129.958 257.251,145.624 260.5,161.5C 242.916,162.86 227.583,157.86 214.5,146.5C 214.167,144.5 213.833,142.5 213.5,140.5C 223.093,138.747 232.093,135.414 240.5,130.5C 241.735,133.301 243.235,135.968 245,138.5C 246.531,127.702 250.198,117.702 256,108.5C 260.574,105.107 263.741,100.774 265.5,95.5C 266.976,97.7686 268.476,100.102 270,102.5C 275.376,96.6279 280.543,90.6279 285.5,84.5 Z"/></g>
<g><path style="opacity:1" fill="#f2554f" d="M 268.5,103.5 C 270.241,105.013 271.241,107.013 271.5,109.5C 269.774,114.233 267.108,114.733 263.5,111C 265.301,108.557 266.968,106.057 268.5,103.5 Z"/></g>
<g><path style="opacity:0.78" fill="#c36e90" d="M 155.5,104.5 C 156.167,104.833 156.833,105.167 157.5,105.5C 159.334,109.479 160.834,113.479 162,117.5C 159.295,113.423 157.128,109.09 155.5,104.5 Z"/></g>
<g><path style="opacity:1" fill="#b45c8b" d="M 219.5,95.5 C 219.833,95.5 220.167,95.5 220.5,95.5C 219.891,100.812 219.391,106.146 219,111.5C 218.832,108.823 217.999,106.49 216.5,104.5C 218.323,101.984 219.323,98.984 219.5,95.5 Z"/></g>
<g><path style="opacity:1" fill="#c16d8f" d="M 203.5,100.5 C 205.452,103.118 207.785,105.452 210.5,107.5C 210.833,107.333 211.167,107.167 211.5,107C 208.865,98.5326 209.532,98.366 213.5,106.5C 211.02,107.912 208.687,109.578 206.5,111.5C 205.482,110.807 204.482,110.141 203.5,109.5C 204.189,108.226 205.023,108.226 206,109.5C 206.167,109 206.333,108.5 206.5,108C 205.349,105.535 204.349,103.035 203.5,100.5 Z"/></g>
<g><path style="opacity:1" fill="#f75147" d="M 275.5,148.5 C 272.54,152.454 273.54,155.287 278.5,157C 272.785,159.65 266.785,161.15 260.5,161.5C 257.251,145.624 257.918,129.958 262.5,114.5C 264.401,113.769 266.401,113.769 268.5,114.5C 268.802,126.306 271.136,137.639 275.5,148.5 Z"/></g>
<g><path style="opacity:1" fill="#693050" d="M 112.5,115.5 C 112.5,117.833 112.5,120.167 112.5,122.5C 109.533,122.011 106.867,120.845 104.5,119C 103.663,117.989 103.33,116.822 103.5,115.5C 106.5,115.5 109.5,115.5 112.5,115.5 Z"/></g>
<g><path style="opacity:1" fill="#c06b8f" d="M 148.5,121.5 C 151.524,121.364 153.024,122.698 153,125.5C 152,124.5 151,123.5 150,122.5C 149.287,126.507 149.787,130.34 151.5,134C 151.167,134.167 150.833,134.333 150.5,134.5C 148.259,130.314 147.592,125.981 148.5,121.5 Z"/></g>
<g><path style="opacity:1" fill="#fedd81" d="M 82.5,136.5 C 83.209,135.596 84.209,135.263 85.5,135.5C 90.6361,134.663 94.9695,135.997 98.5,139.5C 97.8333,139.5 97.5,139.833 97.5,140.5C 93.2356,136.889 88.2356,135.555 82.5,136.5 Z"/></g>
<g><path style="opacity:0.999" fill="#fdcd2d" d="M 82.5,136.5 C 88.2356,135.555 93.2356,136.889 97.5,140.5C 101.067,148.432 103.233,156.765 104,165.5C 105.108,180.844 106.275,196.177 107.5,211.5C 104.821,212.226 102.154,213.059 99.5,214C 86.6764,215.481 74.0097,216.981 61.5,218.5C 54.9349,218.129 49.6016,220.462 45.5,225.5C 46.5,221.5 47.5,217.5 48.5,213.5C 53.8211,195.239 59.3211,176.906 65,158.5C 67.4121,153.341 70.0788,148.341 73,143.5C 75.5014,140.152 78.6681,137.818 82.5,136.5 Z"/></g>
<g><path style="opacity:1" fill="#fecf31" d="M 115.5,133.5 C 120.208,133.943 123.708,136.276 126,140.5C 132.371,154.481 139.205,168.148 146.5,181.5C 145.399,186.167 144.232,190.834 143,195.5C 142.346,194.304 141.846,194.304 141.5,195.5C 143.527,199.553 145.527,203.553 147.5,207.5C 134.711,209.53 122.045,212.197 109.5,215.5C 109.5,215.167 109.5,214.833 109.5,214.5C 107.67,197.224 106.17,179.891 105,162.5C 104.048,156.74 102.715,151.074 101,145.5C 100.303,143.416 99.1361,141.749 97.5,140.5C 97.5,139.833 97.8333,139.5 98.5,139.5C 101.447,140.973 104.447,142.473 107.5,144C 111.089,144.207 114.589,144.707 118,145.5C 117.098,141.598 116.265,137.598 115.5,133.5 Z"/></g>
<g><path style="opacity:1" fill="#ffe79c" d="M 97.5,140.5 C 99.1361,141.749 100.303,143.416 101,145.5C 102.715,151.074 104.048,156.74 105,162.5C 106.17,179.891 107.67,197.224 109.5,214.5C 108.5,214.167 107.833,213.5 107.5,212.5C 107.5,212.167 107.5,211.833 107.5,211.5C 106.275,196.177 105.108,180.844 104,165.5C 103.233,156.765 101.067,148.432 97.5,140.5 Z"/></g>
<g><path style="opacity:0.979" fill="#f94f46" d="M 221.5,234.5 C 222.234,233.292 222.567,231.959 222.5,230.5C 230.024,213.951 237.691,197.451 245.5,181C 264.167,180.333 282.833,180.333 301.5,181C 302.022,181.561 302.355,182.228 302.5,183C 294.97,199.893 287.304,216.726 279.5,233.5C 260.178,234.5 240.845,234.833 221.5,234.5 Z"/></g>
<g><path style="opacity:0.57" fill="#ffcd2d" d="M 227.5,188.5 C 228.478,188.811 229.145,189.478 229.5,190.5C 228.026,194.731 227.026,199.064 226.5,203.5C 225.325,203.719 224.325,203.386 223.5,202.5C 224.84,197.804 226.173,193.138 227.5,188.5 Z"/></g>
<g><path style="opacity:0.606" fill="#ffcf2d" d="M 210.5,193.5 C 213.7,196.866 216.2,200.866 218,205.5C 218.749,206.635 218.583,207.635 217.5,208.5C 215.854,207.221 214.687,205.555 214,203.5C 212.533,200.242 211.367,196.908 210.5,193.5 Z"/></g>
<g><path style="opacity:1" fill="#fb7c72" d="M 263.5,203.5 C 268.813,203.644 270.979,206.31 270,211.5C 268.433,204.846 267.266,205.012 266.5,212C 261.33,212.865 259.497,210.699 261,205.5C 261.995,204.934 262.828,204.267 263.5,203.5 Z"/></g>
<g><path style="opacity:0.998" fill="#f3aca1" d="M 193.5,211.5 C 196.345,215.502 198.345,220.002 199.5,225C 199.415,226.107 199.081,227.107 198.5,228C 196.685,228.757 195.019,229.59 193.5,230.5C 187.83,230.917 182.497,232.251 177.5,234.5C 164.739,238.544 152.406,243.711 140.5,250C 124.731,258.021 108.064,261.021 90.5,259C 77.5544,255.887 68.8877,248.054 64.5,235.5C 64.0074,233.194 63.6741,230.861 63.5,228.5C 67.3133,226.092 71.3133,223.925 75.5,222C 86.3041,219.134 96.9708,215.968 107.5,212.5C 107.833,213.5 108.5,214.167 109.5,214.5C 109.5,214.833 109.5,215.167 109.5,215.5C 105.974,217.072 102.307,218.572 98.5,220C 108.785,217.511 119.119,214.845 129.5,212C 149.276,207.556 169.276,205.889 189.5,207C 190.167,207.667 190.833,208.333 191.5,209C 188.629,209.118 185.962,209.784 183.5,211C 186.846,210.305 190.18,210.471 193.5,211.5 Z"/></g>
<g><path style="opacity:0.632" fill="#ffce2d" d="M 193.5,200.5 C 200.672,205.997 207.338,212.331 213.5,219.5C 212.635,220.583 211.635,220.749 210.5,220C 204.602,213.609 198.935,207.109 193.5,200.5 Z"/></g>
<g><path style="opacity:0.996" fill="#bf6a89" d="M 184.5,204.5 C 189.564,204.235 192.564,206.569 193.5,211.5C 190.18,210.471 186.846,210.305 183.5,211C 185.962,209.784 188.629,209.118 191.5,209C 190.833,208.333 190.167,207.667 189.5,207C 169.276,205.889 149.276,207.556 129.5,212C 119.119,214.845 108.785,217.511 98.5,220C 102.307,218.572 105.974,217.072 109.5,215.5C 122.045,212.197 134.711,209.53 147.5,207.5C 159.841,206.101 172.175,205.101 184.5,204.5 Z"/></g>
<g><path style="opacity:1" fill="#9e4181" d="M 107.5,211.5 C 107.5,211.833 107.5,212.167 107.5,212.5C 96.9708,215.968 86.3041,219.134 75.5,222C 71.3133,223.925 67.3133,226.092 63.5,228.5C 62.7784,228.082 62.2784,227.416 62,226.5C 61.5026,223.854 61.3359,221.187 61.5,218.5C 74.0097,216.981 86.6764,215.481 99.5,214C 102.154,213.059 104.821,212.226 107.5,211.5 Z"/></g>
<g><path style="opacity:0.959" fill="#5c2548" d="M 61.5,218.5 C 61.3359,221.187 61.5026,223.854 62,226.5C 62.2784,227.416 62.7784,228.082 63.5,228.5C 63.6741,230.861 64.0074,233.194 64.5,235.5C 58.7819,236.995 53.1152,236.829 47.5,235C 44.4672,232.239 43.8005,229.073 45.5,225.5C 49.6016,220.462 54.9349,218.129 61.5,218.5 Z"/></g>
<g><path style="opacity:0.941" fill="#a23f7f" d="M 193.5,230.5 C 203.167,230.5 212.833,230.5 222.5,230.5C 222.567,231.959 222.234,233.292 221.5,234.5C 206.833,234.5 192.167,234.5 177.5,234.5C 182.497,232.251 187.83,230.917 193.5,230.5 Z"/></g>
</svg>
