<?xml version="1.0" encoding="UTF-8"?>
<!DOCTYPE svg PUBLIC "-//W3C//DTD SVG 1.1//EN" "http://www.w3.org/Graphics/SVG/1.1/DTD/svg11.dtd">
<svg xmlns="http://www.w3.org/2000/svg" version="1.1" width="368px" height="368px" style="shape-rendering:geometricPrecision; text-rendering:geometricPrecision; image-rendering:optimizeQuality; fill-rule:evenodd; clip-rule:evenodd" xmlns:xlink="http://www.w3.org/1999/xlink">
<g><path style="opacity:0.712" fill="#3eb1b5" d="M 207.5,17.5 C 208.496,17.4142 209.329,17.7476 210,18.5C 212.667,23.8333 215.333,29.1667 218,34.5C 218.749,35.635 218.583,36.635 217.5,37.5C 213.661,31.1556 210.328,24.4889 207.5,17.5 Z"/></g>
<g><path style="opacity:0.963" fill="#f94f45" d="M 223.5,97.5 C 217.549,92.2477 212.549,86.2477 208.5,79.5C 208.632,60.5422 217.965,49.3755 236.5,46C 245.5,45.6667 254.5,45.3333 263.5,45C 270.067,43.8651 276.401,42.0318 282.5,39.5C 280.971,45.8739 277.304,50.7072 271.5,54C 263.563,58.0687 255.23,61.0687 246.5,63C 229.944,68.6198 222.277,80.1198 223.5,97.5 Z"/></g>
<g><path style="opacity:0.547" fill="#3bafb3" d="M 184.5,40.5 C 191.333,44.0849 197.667,48.4182 203.5,53.5C 202.635,54.5827 201.635,54.7494 200.5,54C 196.167,51 191.833,48 187.5,45C 185.859,43.871 184.859,42.371 184.5,40.5 Z"/></g>
<g><path style="opacity:0.59" fill="#3fb0b4" d="M 170.5,71.5 C 177.993,71.7839 185.326,72.6172 192.5,74C 191.975,74.6924 191.308,75.1924 190.5,75.5C 184.551,74.7082 178.551,74.2082 172.5,74C 170.065,73.9252 169.398,73.0919 170.5,71.5 Z"/></g>
<g><path style="opacity:0.889" fill="#fecc2d" d="M 208.5,79.5 C 212.549,86.2477 217.549,92.2477 223.5,97.5C 232.49,108.488 241.823,119.155 251.5,129.5C 250.5,131.167 249.167,132.5 247.5,133.5C 232.147,114.825 216.314,96.4914 200,78.5C 197.662,75.886 197.995,73.886 201,72.5C 203.305,74.9697 205.805,77.3031 208.5,79.5 Z"/></g>
<g><path style="opacity:0.992" fill="#f85047" d="M 173.5,109.5 C 170.075,112.871 169.742,116.538 172.5,120.5C 170.479,121.855 168.812,123.521 167.5,125.5C 163.575,127.876 159.242,129.043 154.5,129C 153.058,129.377 152.058,130.21 151.5,131.5C 148.201,128.924 146.201,125.591 145.5,121.5C 147.654,108.409 155.321,103.243 168.5,106C 170.346,107.03 172.013,108.196 173.5,109.5 Z"/></g>
<g><path style="opacity:0.986" fill="#f1a99e" d="M 179.5,117.5 C 181.197,119.339 182.863,121.172 184.5,123C 184.265,123.873 183.931,124.707 183.5,125.5C 188.67,136.525 185.337,141.858 173.5,141.5C 171.307,140.203 168.973,140.203 166.5,141.5C 167.605,143.611 169.271,144.945 171.5,145.5C 170.706,148.802 170.04,152.135 169.5,155.5C 169.666,160.179 169.499,164.845 169,169.5C 168.824,166.118 168.324,162.785 167.5,159.5C 160.77,162.574 154.937,161.241 150,155.5C 149.667,157.5 149.333,159.5 149,161.5C 148.502,158.518 148.335,155.518 148.5,152.5C 153.111,149.3 156.278,144.967 158,139.5C 159.067,138.809 160.234,138.309 161.5,138C 157.214,138.263 153.88,136.763 151.5,133.5C 151.5,133.167 151.5,132.833 151.5,132.5C 151.5,132.167 151.5,131.833 151.5,131.5C 152.058,130.21 153.058,129.377 154.5,129C 159.242,129.043 163.575,127.876 167.5,125.5C 170.513,124.352 173.513,124.186 176.5,125C 179.73,123.276 180.064,121.276 177.5,119C 178.044,118.283 178.711,117.783 179.5,117.5 Z"/></g>
<g><path style="opacity:1" fill="#823e5e" d="M 173.5,109.5 C 175.975,111.77 177.975,114.437 179.5,117.5C 178.711,117.783 178.044,118.283 177.5,119C 180.064,121.276 179.73,123.276 176.5,125C 173.513,124.186 170.513,124.352 167.5,125.5C 168.812,123.521 170.479,121.855 172.5,120.5C 169.742,116.538 170.075,112.871 173.5,109.5 Z"/></g>
<g><path style="opacity:0.94" fill="#f74e46" d="M 143.5,122.5 C 144.28,127.418 146.947,130.751 151.5,132.5C 151.5,132.833 151.5,133.167 151.5,133.5C 148.715,135.095 145.715,136.095 142.5,136.5C 141.833,136.5 141.5,136.833 141.5,137.5C 140.833,137.5 140.167,137.5 139.5,137.5C 135.818,137.665 132.152,137.499 128.5,137C 127.426,136.261 126.759,135.261 126.5,134C 130.67,128.004 136.337,124.17 143.5,122.5 Z"/></g>
<g><path style="opacity:1" fill="#6f2947" d="M 145.5,121.5 C 146.201,125.591 148.201,128.924 151.5,131.5C 151.5,131.833 151.5,132.167 151.5,132.5C 146.947,130.751 144.28,127.418 143.5,122.5C 143.842,121.662 144.508,121.328 145.5,121.5 Z"/></g>
<g><path style="opacity:0.99" fill="#f2aba1" d="M 266.5,146.5 C 265.761,146.631 265.094,146.464 264.5,146C 261.684,142.217 258.517,138.717 255,135.5C 254.5,136.5 254,137.5 253.5,138.5C 255.771,142.274 258.604,145.607 262,148.5C 262.483,149.448 262.649,150.448 262.5,151.5C 260.113,153.913 257.946,156.58 256,159.5C 252.115,167.271 248.781,175.271 246,183.5C 241.152,196.506 232.652,206.173 220.5,212.5C 215.167,212.5 209.833,212.5 204.5,212.5C 199.256,210.749 194.256,208.416 189.5,205.5C 190.167,204.167 191.167,203.167 192.5,202.5C 195.316,202.124 197.816,200.458 200,197.5C 204.091,191.594 207.924,185.594 211.5,179.5C 212.79,180.058 213.623,181.058 214,182.5C 215.768,178.914 217.268,175.247 218.5,171.5C 226.226,157.394 235.893,144.728 247.5,133.5C 249.167,132.5 250.5,131.167 251.5,129.5C 252.973,128.26 254.64,127.26 256.5,126.5C 257.251,127.376 257.751,128.376 258,129.5C 261.45,126.526 265.283,124.192 269.5,122.5C 270.731,123.651 270.731,124.817 269.5,126C 270.549,126.492 271.549,126.326 272.5,125.5C 273.645,126.776 273.645,128.109 272.5,129.5C 275.088,131.953 274.754,134.119 271.5,136C 272.535,137.507 272.368,139.007 271,140.5C 268.898,142.095 267.398,144.095 266.5,146.5 Z"/></g>
<g><path style="opacity:0.966" fill="#5c2548" d="M 151.5,133.5 C 153.88,136.763 157.214,138.263 161.5,138C 160.234,138.309 159.067,138.809 158,139.5C 156.278,144.967 153.111,149.3 148.5,152.5C 144.919,148.835 140.585,147.668 135.5,149C 127.271,151.781 119.271,155.115 111.5,159C 104.963,161.467 98.2959,163.3 91.5,164.5C 86.5591,165.8 85.3924,168.8 88,173.5C 88.3333,171.167 88.6667,168.833 89,166.5C 89.6708,165.748 90.5041,165.414 91.5,165.5C 95.3852,166.263 97.7185,168.596 98.5,172.5C 97.4706,174.517 96.4706,176.517 95.5,178.5C 93.6923,179.317 92.1923,178.65 91,176.5C 90.8374,178.387 91.6707,179.887 93.5,181C 90.0761,186.354 87.0761,191.854 84.5,197.5C 75.2259,189.194 73.3926,179.527 79,168.5C 83.1847,165.405 87.1847,162.072 91,158.5C 93.7304,152.707 96.7304,147.04 100,141.5C 102.469,139.348 105.302,137.848 108.5,137C 116.57,136.403 124.57,136.903 132.5,138.5C 135.025,138.497 137.359,138.163 139.5,137.5C 140.167,137.5 140.833,137.5 141.5,137.5C 142.167,137.5 142.5,137.167 142.5,136.5C 145.715,136.095 148.715,135.095 151.5,133.5 Z"/></g>
<g><path style="opacity:0.937" fill="#fecd30" d="M 266.5,146.5 C 271.387,153.565 276.887,160.232 283,166.5C 283.667,167.833 283.667,169.167 283,170.5C 282.282,171.451 281.449,171.617 280.5,171C 274.634,164.304 268.634,157.804 262.5,151.5C 262.649,150.448 262.483,149.448 262,148.5C 258.604,145.607 255.771,142.274 253.5,138.5C 254,137.5 254.5,136.5 255,135.5C 258.517,138.717 261.684,142.217 264.5,146C 265.094,146.464 265.761,146.631 266.5,146.5 Z"/></g>
<g><path style="opacity:1" fill="#672f4f" d="M 173.5,141.5 C 172.833,142.833 172.167,144.167 171.5,145.5C 169.271,144.945 167.605,143.611 166.5,141.5C 168.973,140.203 171.307,140.203 173.5,141.5 Z"/></g>
<g><path style="opacity:0.999" fill="#fece2f" d="M 148.5,152.5 C 148.335,155.518 148.502,158.518 149,161.5C 149.333,159.5 149.667,157.5 150,155.5C 154.937,161.241 160.77,162.574 167.5,159.5C 168.324,162.785 168.824,166.118 169,169.5C 169.499,164.845 169.666,160.179 169.5,155.5C 171.738,154.463 174.071,154.297 176.5,155C 182.681,158.257 189.015,161.257 195.5,164C 201.78,165.575 208.113,166.742 214.5,167.5C 210.861,169.139 208.195,171.805 206.5,175.5C 202.598,184.852 197.932,193.852 192.5,202.5C 191.167,203.167 190.167,204.167 189.5,205.5C 183.965,202.81 178.799,199.477 174,195.5C 174.498,201.503 175.331,207.503 176.5,213.5C 158.309,207.034 139.309,202.201 119.5,199C 120.833,197.667 122.167,196.333 123.5,195C 122.906,194.536 122.239,194.369 121.5,194.5C 117.072,191.923 112.739,189.09 108.5,186C 104.536,181.877 101.203,177.377 98.5,172.5C 97.7185,168.596 95.3852,166.263 91.5,165.5C 91.5,165.167 91.5,164.833 91.5,164.5C 98.2959,163.3 104.963,161.467 111.5,159C 119.271,155.115 127.271,151.781 135.5,149C 140.585,147.668 144.919,148.835 148.5,152.5 Z"/></g>
<g><path style="opacity:0.969" fill="#60284a" d="M 214.5,167.5 C 217.5,167.167 218.833,168.5 218.5,171.5C 217.268,175.247 215.768,178.914 214,182.5C 213.623,181.058 212.79,180.058 211.5,179.5C 210.055,177.937 208.389,176.604 206.5,175.5C 208.195,171.805 210.861,169.139 214.5,167.5 Z"/></g>
<g><path style="opacity:1" fill="#97623e" d="M 91.5,164.5 C 91.5,164.833 91.5,165.167 91.5,165.5C 90.5041,165.414 89.6708,165.748 89,166.5C 88.6667,168.833 88.3333,171.167 88,173.5C 85.3924,168.8 86.5591,165.8 91.5,164.5 Z"/></g>
<g><path style="opacity:0.994" fill="#3fb0b4" d="M 268.5,341.5 C 271.078,341.02 273.412,340.02 275.5,338.5C 276.936,337.571 278.269,336.405 279.5,335C 278.552,334.517 277.552,334.351 276.5,334.5C 277.11,333.609 277.443,332.609 277.5,331.5C 275.188,327.188 271.855,323.855 267.5,321.5C 266.5,321.5 265.5,321.5 264.5,321.5C 264.158,320.662 263.492,320.328 262.5,320.5C 262.179,318.952 261.179,318.285 259.5,318.5C 258.508,318.672 257.842,318.338 257.5,317.5C 256.432,316.566 255.099,316.232 253.5,316.5C 251.901,316.768 250.568,316.434 249.5,315.5C 248.609,314.739 247.942,313.739 247.5,312.5C 248.586,309.58 249.252,306.58 249.5,303.5C 249.5,303.167 249.5,302.833 249.5,302.5C 250.301,300.958 250.634,299.292 250.5,297.5C 250.5,297.167 250.5,296.833 250.5,296.5C 259.418,296.205 267.418,293.372 274.5,288C 278.481,283.386 278.481,278.886 274.5,274.5C 264.208,260.517 255.541,245.517 248.5,229.5C 250.98,225.524 254.48,222.857 259,221.5C 262.425,221.919 265.091,223.586 267,226.5C 272.587,237.262 276.587,248.595 279,260.5C 279.65,244.143 280.65,227.81 282,211.5C 282.868,198.898 286.535,187.231 293,176.5C 301.44,170.597 309.106,171.597 316,179.5C 324.927,193.27 330.927,208.27 334,224.5C 341.647,263.16 346.481,302.16 348.5,341.5C 321.833,341.5 295.167,341.5 268.5,341.5 Z"/></g>
<g><path style="opacity:1" fill="#a14582" d="M 98.5,172.5 C 101.203,177.377 104.536,181.877 108.5,186C 112.739,189.09 117.072,191.923 121.5,194.5C 110.572,192.709 101.906,187.376 95.5,178.5C 96.4706,176.517 97.4706,174.517 98.5,172.5 Z"/></g>
<g><path style="opacity:1" fill="#a04481" d="M 206.5,175.5 C 208.389,176.604 210.055,177.937 211.5,179.5C 207.924,185.594 204.091,191.594 200,197.5C 197.816,200.458 195.316,202.124 192.5,202.5C 197.932,193.852 202.598,184.852 206.5,175.5 Z"/></g>
<g><path style="opacity:0.997" fill="#f2aba0" d="M 95.5,178.5 C 101.906,187.376 110.572,192.709 121.5,194.5C 122.239,194.369 122.906,194.536 123.5,195C 122.167,196.333 120.833,197.667 119.5,199C 139.309,202.201 158.309,207.034 176.5,213.5C 180.154,213.058 183.821,212.724 187.5,212.5C 187.5,213.5 187.5,214.5 187.5,215.5C 186.005,215.415 185.005,216.081 184.5,217.5C 189.09,219.762 193.09,222.762 196.5,226.5C 196,226.833 195.5,227.167 195,227.5C 192.117,226.423 189.283,225.59 186.5,225C 189.538,227.703 192.205,230.703 194.5,234C 192.485,234.424 190.651,235.258 189,236.5C 186.083,235.111 183.249,233.945 180.5,233C 182.616,234.171 183.282,235.671 182.5,237.5C 174.108,233.813 165.441,231.146 156.5,229.5C 140.323,229.468 123.99,229.135 107.5,228.5C 89.375,225.73 81.7083,215.397 84.5,197.5C 87.0761,191.854 90.0761,186.354 93.5,181C 91.6707,179.887 90.8374,178.387 91,176.5C 92.1923,178.65 93.6923,179.317 95.5,178.5 Z"/></g>
<g><path style="opacity:1" fill="#ffe283" d="M 169.5,171.5 C 171.172,179.034 172.339,186.7 173,194.5C 170.678,187.084 169.511,179.417 169.5,171.5 Z"/></g>
<g><path style="opacity:0.989" fill="#f84f46" d="M 204.5,212.5 C 209.833,212.5 215.167,212.5 220.5,212.5C 233.032,213.091 242.366,218.758 248.5,229.5C 255.541,245.517 264.208,260.517 274.5,274.5C 265.879,275.146 258.545,278.48 252.5,284.5C 243.101,290.633 232.767,293.966 221.5,294.5C 221.167,294.5 220.833,294.5 220.5,294.5C 218.967,280.434 216.967,266.434 214.5,252.5C 201.462,258.79 187.962,263.79 174,267.5C 175.01,286.939 172.677,305.939 167,324.5C 161.858,337.994 152.024,344.328 137.5,343.5C 119.63,342.117 102.63,337.783 86.5,330.5C 86.5,329.833 86.5,329.167 86.5,328.5C 86.8484,319.42 88.8484,310.754 92.5,302.5C 95.4968,297.84 97.9968,292.84 100,287.5C 100.634,284.445 100.468,281.445 99.5,278.5C 106.673,284.168 114.007,289.668 121.5,295C 124.377,296.946 127.377,298.279 130.5,299C 122.994,281.974 118.994,264.141 118.5,245.5C 119.477,242.713 119.81,239.713 119.5,236.5C 116.167,236.5 112.833,236.5 109.5,236.5C 118.658,235.67 127.991,235.17 137.5,235C 144.082,233.609 150.415,231.776 156.5,229.5C 165.441,231.146 174.108,233.813 182.5,237.5C 183.282,235.671 182.616,234.171 180.5,233C 183.249,233.945 186.083,235.111 189,236.5C 190.651,235.258 192.485,234.424 194.5,234C 192.205,230.703 189.538,227.703 186.5,225C 189.283,225.59 192.117,226.423 195,227.5C 195.5,227.167 196,226.833 196.5,226.5C 193.09,222.762 189.09,219.762 184.5,217.5C 185.005,216.081 186.005,215.415 187.5,215.5C 193.14,214.393 198.807,213.393 204.5,212.5 Z"/></g>
<g><path style="opacity:0.992" fill="#fecb34" d="M 107.5,228.5 C 123.99,229.135 140.323,229.468 156.5,229.5C 150.415,231.776 144.082,233.609 137.5,235C 127.991,235.17 118.658,235.67 109.5,236.5C 107.297,236.604 105.297,237.27 103.5,238.5C 104.639,235.082 105.972,231.749 107.5,228.5 Z"/></g>
<g><path style="opacity:0.946" fill="#5c2447" d="M 109.5,236.5 C 112.833,236.5 116.167,236.5 119.5,236.5C 119.81,239.713 119.477,242.713 118.5,245.5C 113.003,245.876 108.003,244.543 103.5,241.5C 102.347,240.313 102.347,239.313 103.5,238.5C 105.297,237.27 107.297,236.604 109.5,236.5 Z"/></g>
<g><path style="opacity:1" fill="#fa7f78" d="M 169.5,237.5 C 170.963,240.203 171.796,243.203 172,246.5C 172.999,253.15 173.333,259.817 173,266.5C 171.923,256.813 170.756,247.146 169.5,237.5 Z"/></g>
<g><path style="opacity:1" fill="#5d2749" d="M 274.5,274.5 C 278.481,278.886 278.481,283.386 274.5,288C 267.418,293.372 259.418,296.205 250.5,296.5C 250.5,295.167 250.5,293.833 250.5,292.5C 252.051,290.087 252.717,287.421 252.5,284.5C 258.545,278.48 265.879,275.146 274.5,274.5 Z"/></g>
<g><path style="opacity:0.968" fill="#5b2448" d="M 99.5,278.5 C 100.468,281.445 100.634,284.445 100,287.5C 97.9968,292.84 95.4968,297.84 92.5,302.5C 89.4299,302.632 86.4299,302.299 83.5,301.5C 83.1667,301.5 82.8333,301.5 82.5,301.5C 81.8333,301.5 81.5,301.167 81.5,300.5C 81.3555,292.768 83.5221,285.768 88,279.5C 91.749,276.075 95.5823,275.741 99.5,278.5 Z"/></g>
<g><path style="opacity:1" fill="#e5dde2" d="M 54.5,289.5 C 54.5,289.833 54.5,290.167 54.5,290.5C 53.0203,296.753 49.5203,301.753 44,305.5C 43.7105,307.952 43.0438,310.285 42,312.5C 34.9045,319.355 31.7379,327.688 32.5,337.5C 31.2591,339.931 30.0924,339.931 29,337.5C 28.3333,334.5 28.3333,331.5 29,328.5C 33.3788,313.684 38.7122,299.35 45,285.5C 48.0981,286.205 50.4315,287.872 52,290.5C 52.6708,289.748 53.5041,289.414 54.5,289.5 Z"/></g>
<g><path style="opacity:1" fill="#a1407f" d="M 252.5,284.5 C 252.717,287.421 252.051,290.087 250.5,292.5C 241.001,294.868 231.335,295.868 221.5,295.5C 221.5,295.167 221.5,294.833 221.5,294.5C 232.767,293.966 243.101,290.633 252.5,284.5 Z"/></g>
<g><path style="opacity:0.993" fill="#3fb0b4" d="M 220.5,294.5 C 220.5,295.167 220.833,295.5 221.5,295.5C 221.557,296.609 221.89,297.609 222.5,298.5C 222.5,299.833 222.5,301.167 222.5,302.5C 222.5,303.167 222.5,303.833 222.5,304.5C 222.5,305.833 222.5,307.167 222.5,308.5C 222.62,318.188 222.287,327.854 221.5,337.5C 221.5,338.5 221.5,339.5 221.5,340.5C 221.5,340.833 221.5,341.167 221.5,341.5C 209.167,341.5 196.833,341.5 184.5,341.5C 184.843,324.945 188.676,309.278 196,294.5C 204.058,286.712 212.225,286.712 220.5,294.5 Z"/></g>
<g><path style="opacity:1" fill="#fdfcfa" d="M 54.5,290.5 C 55.1499,290.804 55.8165,291.137 56.5,291.5C 57.7698,296.81 58.9365,302.143 60,307.5C 60.0843,302.443 59.751,297.443 59,292.5C 63.4482,294.974 67.9482,297.307 72.5,299.5C 70.3437,301.841 67.8437,303.841 65,305.5C 62.8218,309.194 60.6552,312.861 58.5,316.5C 57.9744,318.23 56.9744,319.564 55.5,320.5C 54.6951,316.894 52.8618,313.894 50,311.5C 51.758,315.865 52.9246,320.531 53.5,325.5C 52.8333,325.833 52.1667,326.167 51.5,326.5C 51.422,322.344 49.7553,319.011 46.5,316.5C 46.1667,316.833 45.8333,317.167 45.5,317.5C 48.5467,320.927 49.88,324.927 49.5,329.5C 48.8333,329.833 48.1667,330.167 47.5,330.5C 47.324,326.967 45.9906,323.967 43.5,321.5C 42.959,323.523 43.459,325.523 45,327.5C 45.4955,329.473 45.6621,331.473 45.5,333.5C 41.6899,336.119 37.5232,338.119 33,339.5C 32.5357,338.906 32.369,338.239 32.5,337.5C 31.7379,327.688 34.9045,319.355 42,312.5C 43.0438,310.285 43.7105,307.952 44,305.5C 49.5203,301.753 53.0203,296.753 54.5,290.5 Z"/></g>
<g><path style="opacity:0.62" fill="#6e405e" d="M 54.5,289.5 C 53.5041,289.414 52.6708,289.748 52,290.5C 50.4315,287.872 48.0981,286.205 45,285.5C 38.7122,299.35 33.3788,313.684 29,328.5C 28.3333,331.5 28.3333,334.5 29,337.5C 30.0924,339.931 31.2591,339.931 32.5,337.5C 32.369,338.239 32.5357,338.906 33,339.5C 37.5232,338.119 41.6899,336.119 45.5,333.5C 45.5,333.833 45.5,334.167 45.5,334.5C 40.7341,337.983 35.4008,340.316 29.5,341.5C 27.9581,339.121 27.2914,336.454 27.5,333.5C 27.6667,331.5 27.8333,329.5 28,327.5C 32.944,312.835 37.7773,298.168 42.5,283.5C 47.0864,284.46 51.0864,286.46 54.5,289.5 Z"/></g>
<g><path style="opacity:0.651" fill="#7e536f" d="M 54.5,290.5 C 54.5,290.167 54.5,289.833 54.5,289.5C 60.9589,292.229 67.2923,295.229 73.5,298.5C 73.5,299.167 73.1667,299.5 72.5,299.5C 67.9482,297.307 63.4482,294.974 59,292.5C 59.751,297.443 60.0843,302.443 60,307.5C 58.9365,302.143 57.7698,296.81 56.5,291.5C 55.8165,291.137 55.1499,290.804 54.5,290.5 Z"/></g>
<g><path style="opacity:0.995" fill="#eda9a2" d="M 250.5,292.5 C 250.5,293.833 250.5,295.167 250.5,296.5C 250.5,296.833 250.5,297.167 250.5,297.5C 241.163,297.745 231.829,298.078 222.5,298.5C 221.89,297.609 221.557,296.609 221.5,295.5C 231.335,295.868 241.001,294.868 250.5,292.5 Z"/></g>
<g><path style="opacity:1" fill="#70b1ed" d="M 250.5,297.5 C 250.634,299.292 250.301,300.958 249.5,302.5C 240.5,302.5 231.5,302.5 222.5,302.5C 222.5,301.167 222.5,299.833 222.5,298.5C 231.829,298.078 241.163,297.745 250.5,297.5 Z"/></g>
<g><path style="opacity:1" fill="#6cb0ee" d="M 73.5,298.5 C 74.1667,298.833 74.8333,299.167 75.5,299.5C 75.9234,300.265 76.2568,301.098 76.5,302C 74.5889,308.478 72.7556,314.978 71,321.5C 70.6174,322.056 70.1174,322.389 69.5,322.5C 66.1667,321.167 62.8333,319.833 59.5,318.5C 59.6716,317.508 59.3382,316.842 58.5,316.5C 60.6552,312.861 62.8218,309.194 65,305.5C 67.8437,303.841 70.3437,301.841 72.5,299.5C 73.1667,299.5 73.5,299.167 73.5,298.5 Z"/></g>
<g><path style="opacity:1" fill="#70b1ed" d="M 78.5,300.5 C 79.5,300.5 80.5,300.5 81.5,300.5C 81.5,301.167 81.8333,301.5 82.5,301.5C 81.1624,308.519 79.6624,315.519 78,322.5C 77.6232,323.942 76.7899,324.942 75.5,325.5C 74.391,325.443 73.391,325.11 72.5,324.5C 73.883,316.35 75.883,308.35 78.5,300.5 Z"/></g>
<g><path style="opacity:1" fill="#daeaf8" d="M 75.5,299.5 C 76.791,299.263 77.791,299.596 78.5,300.5C 75.883,308.35 73.883,316.35 72.5,324.5C 71.2905,324.068 70.2905,323.401 69.5,322.5C 70.1174,322.389 70.6174,322.056 71,321.5C 72.7556,314.978 74.5889,308.478 76.5,302C 76.2568,301.098 75.9234,300.265 75.5,299.5 Z"/></g>
<g><path style="opacity:0.97" fill="#eeaba3" d="M 82.5,301.5 C 82.8333,301.5 83.1667,301.5 83.5,301.5C 83.5893,307.729 83.756,314.062 84,320.5C 84.2794,323.457 85.1127,326.123 86.5,328.5C 86.5,329.167 86.5,329.833 86.5,330.5C 82.4069,329.618 78.7403,327.951 75.5,325.5C 76.7899,324.942 77.6232,323.942 78,322.5C 79.6624,315.519 81.1624,308.519 82.5,301.5 Z"/></g>
<g><path style="opacity:1" fill="#a24582" d="M 83.5,301.5 C 86.4299,302.299 89.4299,302.632 92.5,302.5C 88.8484,310.754 86.8484,319.42 86.5,328.5C 85.1127,326.123 84.2794,323.457 84,320.5C 83.756,314.062 83.5893,307.729 83.5,301.5 Z"/></g>
<g><path style="opacity:1" fill="#d3e8fa" d="M 222.5,302.5 C 231.5,302.5 240.5,302.5 249.5,302.5C 249.5,302.833 249.5,303.167 249.5,303.5C 240.509,304.041 231.509,304.374 222.5,304.5C 222.5,303.833 222.5,303.167 222.5,302.5 Z"/></g>
<g><path style="opacity:1" fill="#69afed" d="M 249.5,303.5 C 249.252,306.58 248.586,309.58 247.5,312.5C 247.942,313.739 248.609,314.739 249.5,315.5C 243.523,314.859 237.523,314.359 231.5,314C 229.183,311.843 226.516,310.343 223.5,309.5C 223.5,308.833 223.167,308.5 222.5,308.5C 222.5,307.167 222.5,305.833 222.5,304.5C 231.509,304.374 240.509,304.041 249.5,303.5 Z"/></g>
<g><path style="opacity:1" fill="#faf8f8" d="M 223.5,309.5 C 226.516,310.343 229.183,311.843 231.5,314C 237.523,314.359 243.523,314.859 249.5,315.5C 250.568,316.434 251.901,316.768 253.5,316.5C 250.896,318.6 248.396,320.933 246,323.5C 245.312,324.332 245.479,324.998 246.5,325.5C 249.625,322.035 253.292,319.368 257.5,317.5C 257.842,318.338 258.508,318.672 259.5,318.5C 255.74,320.424 252.74,323.257 250.5,327C 251,327.5 251.5,328 252,328.5C 254.211,324.121 257.711,321.454 262.5,320.5C 263.492,320.328 264.158,320.662 264.5,321.5C 262.093,322.794 259.926,324.461 258,326.5C 257.333,327.5 257.333,328.5 258,329.5C 260.297,326.02 263.464,324.02 267.5,323.5C 271.103,325.763 274.436,328.43 277.5,331.5C 277.443,332.609 277.11,333.609 276.5,334.5C 277.552,334.351 278.552,334.517 279.5,335C 278.269,336.405 276.936,337.571 275.5,338.5C 272.873,339.092 270.206,339.425 267.5,339.5C 252.129,340.15 237.129,339.484 222.5,337.5C 221.959,334.348 222.959,331.848 225.5,330C 223.808,328.599 223.141,326.766 223.5,324.5C 227.5,324.167 227.5,323.833 223.5,323.5C 223.5,318.833 223.5,314.167 223.5,309.5 Z"/></g>
<g><path style="opacity:1" fill="#fdd147" d="M 55.5,320.5 C 55.5,321.5 55.5,322.5 55.5,323.5C 55.6716,324.492 55.3382,325.158 54.5,325.5C 54.1667,325.5 53.8333,325.5 53.5,325.5C 52.9246,320.531 51.758,315.865 50,311.5C 52.8618,313.894 54.6951,316.894 55.5,320.5 Z"/></g>
<g><path style="opacity:1" fill="#fdd142" d="M 253.5,316.5 C 255.099,316.232 256.432,316.566 257.5,317.5C 253.292,319.368 249.625,322.035 246.5,325.5C 245.479,324.998 245.312,324.332 246,323.5C 248.396,320.933 250.896,318.6 253.5,316.5 Z"/></g>
<g><path style="opacity:0.094" fill="#642f52" d="M 58.5,316.5 C 59.3382,316.842 59.6716,317.508 59.5,318.5C 58.1667,320.167 56.8333,321.833 55.5,323.5C 55.5,322.5 55.5,321.5 55.5,320.5C 56.9744,319.564 57.9744,318.23 58.5,316.5 Z"/></g>
<g><path style="opacity:1" fill="#facd43" d="M 51.5,326.5 C 51.5,327.167 51.5,327.833 51.5,328.5C 51.5,329.833 50.8333,330.5 49.5,330.5C 49.5,330.167 49.5,329.833 49.5,329.5C 49.88,324.927 48.5467,320.927 45.5,317.5C 45.8333,317.167 46.1667,316.833 46.5,316.5C 49.7553,319.011 51.422,322.344 51.5,326.5 Z"/></g>
<g><path style="opacity:1" fill="#fed348" d="M 259.5,318.5 C 261.179,318.285 262.179,318.952 262.5,320.5C 257.711,321.454 254.211,324.121 252,328.5C 251.5,328 251,327.5 250.5,327C 252.74,323.257 255.74,320.424 259.5,318.5 Z"/></g>
<g><path style="opacity:1" fill="#767e8e" d="M 267.5,321.5 C 271.855,323.855 275.188,327.188 277.5,331.5C 274.436,328.43 271.103,325.763 267.5,323.5C 267.5,322.833 267.5,322.167 267.5,321.5 Z"/></g>
<g><path style="opacity:1" fill="#f9cc40" d="M 47.5,330.5 C 47.5,331.167 47.5,331.833 47.5,332.5C 47.1667,333.5 46.5,334.167 45.5,334.5C 45.5,334.167 45.5,333.833 45.5,333.5C 45.6621,331.473 45.4955,329.473 45,327.5C 43.459,325.523 42.959,323.523 43.5,321.5C 45.9906,323.967 47.324,326.967 47.5,330.5 Z"/></g>
<g><path style="opacity:0.153" fill="#60274f" d="M 53.5,325.5 C 53.8333,325.5 54.1667,325.5 54.5,325.5C 53.8333,326.833 52.8333,327.833 51.5,328.5C 51.5,327.833 51.5,327.167 51.5,326.5C 52.1667,326.167 52.8333,325.833 53.5,325.5 Z"/></g>
<g><path style="opacity:1" fill="#ffd23e" d="M 264.5,321.5 C 265.5,321.5 266.5,321.5 267.5,321.5C 267.5,322.167 267.5,322.833 267.5,323.5C 263.464,324.02 260.297,326.02 258,329.5C 257.333,328.5 257.333,327.5 258,326.5C 259.926,324.461 262.093,322.794 264.5,321.5 Z"/></g>
<g><path style="opacity:1" fill="#85768b" d="M 222.5,308.5 C 223.167,308.5 223.5,308.833 223.5,309.5C 223.5,314.167 223.5,318.833 223.5,323.5C 227.5,323.833 227.5,324.167 223.5,324.5C 223.141,326.766 223.808,328.599 225.5,330C 222.959,331.848 221.959,334.348 222.5,337.5C 222.167,337.5 221.833,337.5 221.5,337.5C 222.287,327.854 222.62,318.188 222.5,308.5 Z"/></g>
<g><path style="opacity:0.271" fill="#653051" d="M 49.5,329.5 C 49.5,329.833 49.5,330.167 49.5,330.5C 49.1667,331.5 48.5,332.167 47.5,332.5C 47.5,331.833 47.5,331.167 47.5,330.5C 48.1667,330.167 48.8333,329.833 49.5,329.5 Z"/></g>
<g><path style="opacity:1" fill="#a18196" d="M 234.5,336.5 C 234.315,334.11 232.982,333.11 230.5,333.5C 228.018,333.11 226.685,334.11 226.5,336.5C 225.139,333.182 226.472,331.849 230.5,332.5C 234.528,331.849 235.861,333.182 234.5,336.5 Z"/></g>
<g><path style="opacity:1" fill="#ab8ea1" d="M 276.5,334.5 C 275.158,335.793 273.491,336.626 271.5,337C 262.822,338.285 254.489,337.118 246.5,333.5C 242.294,335.032 238.627,334.198 235.5,331C 245.299,332.132 255.132,333.965 265,336.5C 268.94,336.351 272.773,335.684 276.5,334.5 Z"/></g>
<g><path style="opacity:1" fill="#fefdfe" d="M 234.5,336.5 C 231.833,337.833 229.167,337.833 226.5,336.5C 226.685,334.11 228.018,333.11 230.5,333.5C 232.982,333.11 234.315,334.11 234.5,336.5 Z"/></g>
<g><path style="opacity:1" fill="#9e7d92" d="M 226.5,336.5 C 229.167,337.833 231.833,337.833 234.5,336.5C 233.688,337.993 232.355,338.66 230.5,338.5C 228.645,338.66 227.312,337.993 226.5,336.5 Z"/></g>
<g><path style="opacity:1" fill="#c5b3bf" d="M 221.5,337.5 C 221.833,337.5 222.167,337.5 222.5,337.5C 237.129,339.484 252.129,340.15 267.5,339.5C 252.342,340.496 237.009,340.83 221.5,340.5C 221.5,339.5 221.5,338.5 221.5,337.5 Z"/></g>
<g><path style="opacity:0.6" fill="#53677c" d="M 275.5,338.5 C 273.412,340.02 271.078,341.02 268.5,341.5C 252.833,341.5 237.167,341.5 221.5,341.5C 221.5,341.167 221.5,340.833 221.5,340.5C 237.009,340.83 252.342,340.496 267.5,339.5C 270.206,339.425 272.873,339.092 275.5,338.5 Z"/></g>
</svg>
