<?xml version="1.0" encoding="UTF-8"?>
<!DOCTYPE svg PUBLIC "-//W3C//DTD SVG 1.1//EN" "http://www.w3.org/Graphics/SVG/1.1/DTD/svg11.dtd">
<svg xmlns="http://www.w3.org/2000/svg" version="1.1" width="368px" height="354px" style="shape-rendering:geometricPrecision; text-rendering:geometricPrecision; image-rendering:optimizeQuality; fill-rule:evenodd; clip-rule:evenodd" xmlns:xlink="http://www.w3.org/1999/xlink">
<g><path style="opacity:0.984" fill="#5c2448" d="M 157.5,-0.5 C 162.167,-0.5 166.833,-0.5 171.5,-0.5C 177.089,1.92064 181.256,5.92064 184,11.5C 196.566,6.57455 205.566,10.2412 211,22.5C 212.462,29.4306 211.128,35.764 207,41.5C 205.85,44.7679 205.016,48.1012 204.5,51.5C 196.696,54.1333 190.862,59.1333 187,66.5C 183.949,69.3739 181.282,69.0406 179,65.5C 175.783,58.4146 171.117,52.4146 165,47.5C 165.255,50.0816 165.422,52.7482 165.5,55.5C 160.011,53.7611 154.678,51.4277 149.5,48.5C 148.275,46.1567 148.941,44.3234 151.5,43C 146.924,41.5236 142.257,41.1902 137.5,42C 139.923,42.7319 141.09,44.2319 141,46.5C 137.426,47.7631 133.926,49.0964 130.5,50.5C 130.813,47.7531 130.48,45.0865 129.5,42.5C 116.678,36.5338 113.511,27.2004 120,14.5C 127.221,7.59827 135.721,5.59827 145.5,8.5C 148.975,4.67725 152.975,1.67725 157.5,-0.5 Z"/></g>
<g><path style="opacity:0.996" fill="#f3aca1" d="M 204.5,51.5 C 216.4,51.6089 221.566,57.6089 220,69.5C 217.453,76.8816 212.62,82.2149 205.5,85.5C 205.355,91.6176 206.522,97.6176 209,103.5C 211.743,109.904 214.576,116.238 217.5,122.5C 208.063,138.938 194.396,150.271 176.5,156.5C 175.5,156.5 174.5,156.5 173.5,156.5C 163.442,149.412 157.108,139.745 154.5,127.5C 154.433,126.041 154.766,124.708 155.5,123.5C 163.937,122.23 168.937,117.397 170.5,109C 170.491,107.596 169.991,106.43 169,105.5C 164.791,107.614 160.624,109.614 156.5,111.5C 152.51,111.999 148.51,112.499 144.5,113C 146.853,115.133 147.853,117.8 147.5,121C 147.392,124.816 146.392,128.316 144.5,131.5C 142.05,132.777 139.717,134.277 137.5,136C 136.207,136.49 134.873,136.657 133.5,136.5C 134.183,132.435 135.183,128.435 136.5,124.5C 136.167,123.833 135.833,123.167 135.5,122.5C 134.164,127.179 132.831,131.846 131.5,136.5C 126.075,151.109 121.075,165.776 116.5,180.5C 116.167,180.5 115.833,180.5 115.5,180.5C 94.1735,175.001 74.5069,166.001 56.5,153.5C 73.5525,124.623 94.5525,98.79 119.5,76C 122.111,74.2732 124.777,73.7732 127.5,74.5C 129.806,66.6911 130.806,58.6911 130.5,50.5C 133.926,49.0964 137.426,47.7631 141,46.5C 141.09,44.2319 139.923,42.7319 137.5,42C 142.257,41.1902 146.924,41.5236 151.5,43C 148.941,44.3234 148.275,46.1567 149.5,48.5C 154.678,51.4277 160.011,53.7611 165.5,55.5C 165.422,52.7482 165.255,50.0816 165,47.5C 171.117,52.4146 175.783,58.4146 179,65.5C 181.282,69.0406 183.949,69.3739 187,66.5C 190.862,59.1333 196.696,54.1333 204.5,51.5 Z M 156.5,111.5 C 156.167,115.5 155.833,119.5 155.5,123.5C 154.766,124.708 154.433,126.041 154.5,127.5C 152.833,128.167 151.167,128.833 149.5,129.5C 148.508,129.328 147.842,129.662 147.5,130.5C 146.391,130.557 145.391,130.89 144.5,131.5C 146.392,128.316 147.392,124.816 147.5,121C 147.853,117.8 146.853,115.133 144.5,113C 148.51,112.499 152.51,111.999 156.5,111.5 Z"/></g>
<g><path style="opacity:1" fill="#6e3553" d="M 138.5,56.5 C 140.635,56.147 141.968,56.9803 142.5,59C 140.881,62.4034 138.881,65.57 136.5,68.5C 137.313,69.8139 138.313,70.9805 139.5,72C 137.174,72.1849 135.84,71.0182 135.5,68.5C 136.065,66.5952 137.065,64.9285 138.5,63.5C 136.887,62.5726 135.221,61.7393 133.5,61C 132.663,59.9887 132.33,58.8221 132.5,57.5C 134.735,57.7947 136.735,57.4614 138.5,56.5 Z"/></g>
<g><path style="opacity:1" fill="#622a4c" d="M 148.5,57.5 C 153.248,58.5207 157.915,59.854 162.5,61.5C 157.879,65.0154 153.046,65.3487 148,62.5C 147.36,60.735 147.527,59.0683 148.5,57.5 Z"/></g>
<g><path style="opacity:1" fill="#ec8e91" d="M 164.5,67.5 C 173.53,67.3583 177.363,71.6916 176,80.5C 173.103,85.1549 168.937,86.6549 163.5,85C 156.631,78.7239 156.965,72.8905 164.5,67.5 Z"/></g>
<g><path style="opacity:1" fill="#ad5288" d="M 204.5,61.5 C 206.199,61.3398 207.866,61.5065 209.5,62C 201.845,63.6552 196.679,68.1552 194,75.5C 194.956,69.0297 198.456,64.363 204.5,61.5 Z"/></g>
<g><path style="opacity:1" fill="#a24684" d="M 150.5,80.5 C 151.675,80.281 152.675,80.6143 153.5,81.5C 150.567,82.93 148.067,84.93 146,87.5C 146.004,84.307 147.504,81.9737 150.5,80.5 Z"/></g>
<g><path style="opacity:1" fill="#b75f8c" d="M 201.5,85.5 C 202.376,85.3691 203.043,85.7025 203.5,86.5C 199.955,88.4361 196.289,88.7694 192.5,87.5C 195.642,86.8326 198.642,86.166 201.5,85.5 Z"/></g>
<g><path style="opacity:1" fill="#ad5388" d="M 127.5,74.5 C 128.613,75.9464 128.78,77.6131 128,79.5C 126.274,83.9531 124.274,88.2864 122,92.5C 121.333,94.5 121.333,96.5 122,98.5C 124.944,99.7226 127.444,101.556 129.5,104C 132.583,105.139 135.583,106.472 138.5,108C 140.037,109.11 140.703,110.61 140.5,112.5C 136.303,111.75 132.97,113.083 130.5,116.5C 129.773,115.517 130.107,114.517 131.5,113.5C 133.554,111.806 135.888,110.639 138.5,110C 135.937,107.719 132.937,106.552 129.5,106.5C 125.714,106.917 122.381,108.083 119.5,110C 121.809,107.513 124.476,105.513 127.5,104C 125.282,101.724 122.615,100.224 119.5,99.5C 116.365,100.75 113.365,101.917 110.5,103C 112.976,100.429 115.976,98.9289 119.5,98.5C 121.597,90.3073 124.263,82.3073 127.5,74.5 Z"/></g>
<g><path style="opacity:1" fill="#a04283" d="M 155.5,123.5 C 155.833,119.5 156.167,115.5 156.5,111.5C 160.624,109.614 164.791,107.614 169,105.5C 169.991,106.43 170.491,107.596 170.5,109C 168.937,117.397 163.937,122.23 155.5,123.5 Z"/></g>
<g><path style="opacity:0.997" fill="#67b0ef" d="M 217.5,122.5 C 221.19,125.199 224.857,127.865 228.5,130.5C 227.503,130.47 226.836,130.97 226.5,132C 221.747,144.34 216.58,156.507 211,168.5C 208.611,173.554 205.445,178.054 201.5,182C 198.634,183.457 195.634,183.79 192.5,183C 185.257,175.352 179.924,166.519 176.5,156.5C 194.396,150.271 208.063,138.938 217.5,122.5 Z"/></g>
<g><path style="opacity:0.999" fill="#68b0ef" d="M 154.5,127.5 C 157.108,139.745 163.442,149.412 173.5,156.5C 171.683,161.46 168.85,165.793 165,169.5C 164.517,170.448 164.351,171.448 164.5,172.5C 160.846,175.331 156.846,177.664 152.5,179.5C 149.968,179.136 148.135,177.803 147,175.5C 144.852,160.015 145.685,144.681 149.5,129.5C 151.167,128.833 152.833,128.167 154.5,127.5 Z"/></g>
<g><path style="opacity:0.995" fill="#66afef" d="M 147.5,130.5 C 144.447,145.775 143.947,161.109 146,176.5C 148.89,180.828 152.723,181.661 157.5,179C 159.66,177.668 161.66,176.168 163.5,174.5C 164.174,177.526 165.007,180.526 166,183.5C 170.845,186.151 176.011,186.984 181.5,186C 182.986,183.525 184.319,181.025 185.5,178.5C 187.63,180.127 189.63,181.96 191.5,184C 196.802,186.282 201.302,185.116 205,180.5C 214.708,164.749 222.541,148.082 228.5,130.5C 241.768,133.595 254.768,137.261 267.5,141.5C 251.427,141.957 241.261,149.957 237,165.5C 234.511,182.439 235.844,199.106 241,215.5C 247.045,234.142 254.545,252.142 263.5,269.5C 248.848,270.499 234.182,270.833 219.5,270.5C 219.167,270.5 218.833,270.5 218.5,270.5C 217.457,267.944 215.79,265.777 213.5,264C 200.041,258.199 188.041,260.366 177.5,270.5C 175.724,242.748 176.724,215.081 180.5,187.5C 175.333,187.91 170.333,187.243 165.5,185.5C 146.407,216.37 133.407,249.703 126.5,285.5C 115.666,289.919 105.333,295.419 95.5,302C 92.2379,304.754 89.5712,307.921 87.5,311.5C 87.6082,312.442 87.9415,313.275 88.5,314C 91.5547,314.634 94.5547,314.468 97.5,313.5C 92.7191,318.613 89.7191,324.613 88.5,331.5C 87.8333,331.5 87.5,331.833 87.5,332.5C 75.2275,335.854 62.7275,337.854 50,338.5C 20.6694,338.66 3.83606,324.326 -0.5,295.5C -0.5,287.5 -0.5,279.5 -0.5,271.5C 4.95214,241.93 15.9521,214.596 32.5,189.5C 55.051,205.743 80.2177,215.41 108,218.5C 107.476,227.178 106.476,235.845 105,244.5C 102.204,259.294 99.2042,273.96 96,288.5C 99.8774,277.467 102.877,266.134 105,254.5C 108.835,229.818 112.668,205.151 116.5,180.5C 121.075,165.776 126.075,151.109 131.5,136.5C 132.167,136.5 132.833,136.5 133.5,136.5C 134.873,136.657 136.207,136.49 137.5,136C 139.717,134.277 142.05,132.777 144.5,131.5C 145.391,130.89 146.391,130.557 147.5,130.5 Z"/></g>
<g><path style="opacity:1" fill="#b1588a" d="M 133.5,136.5 C 132.833,136.5 132.167,136.5 131.5,136.5C 132.831,131.846 134.164,127.179 135.5,122.5C 135.833,123.167 136.167,123.833 136.5,124.5C 135.183,128.435 134.183,132.435 133.5,136.5 Z"/></g>
<g><path style="opacity:0.994" fill="#66b0f0" d="M 277.5,145.5 C 288.719,149.776 299.053,155.609 308.5,163C 340.303,191.445 359.97,226.612 367.5,268.5C 367.5,277.167 367.5,285.833 367.5,294.5C 366.05,304.597 362.883,314.263 358,323.5C 348.898,334.809 337.064,341.642 322.5,344C 310.588,346.098 298.588,347.265 286.5,347.5C 285.371,321.149 278.704,296.315 266.5,273C 270.5,272.333 274.5,272.333 278.5,273C 288.204,274.452 297.871,275.785 307.5,277C 302.717,275.076 297.717,273.743 292.5,273C 283.231,271.399 273.898,270.566 264.5,270.5C 256.07,253.053 248.904,235.053 243,216.5C 238.899,203.109 236.899,189.442 237,175.5C 239.295,149.964 252.795,139.964 277.5,145.5 Z"/></g>
<g><path style="opacity:1" fill="#a4d0f2" d="M 228.5,130.5 C 222.541,148.082 214.708,164.749 205,180.5C 201.302,185.116 196.802,186.282 191.5,184C 189.63,181.96 187.63,180.127 185.5,178.5C 182.28,171.729 178.78,165.063 175,158.5C 171.723,163.414 168.223,168.08 164.5,172.5C 164.351,171.448 164.517,170.448 165,169.5C 168.85,165.793 171.683,161.46 173.5,156.5C 174.5,156.5 175.5,156.5 176.5,156.5C 179.924,166.519 185.257,175.352 192.5,183C 195.634,183.79 198.634,183.457 201.5,182C 205.445,178.054 208.611,173.554 211,168.5C 216.58,156.507 221.747,144.34 226.5,132C 226.836,130.97 227.503,130.47 228.5,130.5 Z"/></g>
<g><path style="opacity:1" fill="#a1d2f5" d="M 149.5,129.5 C 145.685,144.681 144.852,160.015 147,175.5C 148.135,177.803 149.968,179.136 152.5,179.5C 156.846,177.664 160.846,175.331 164.5,172.5C 164.167,173.167 163.833,173.833 163.5,174.5C 161.66,176.168 159.66,177.668 157.5,179C 152.723,181.661 148.89,180.828 146,176.5C 143.947,161.109 144.447,145.775 147.5,130.5C 147.842,129.662 148.508,129.328 149.5,129.5 Z"/></g>
<g><path style="opacity:0.995" fill="#66b0ef" d="M 56.5,153.5 C 74.5069,166.001 94.1735,175.001 115.5,180.5C 112.865,192.38 110.865,204.38 109.5,216.5C 81.0684,214.604 55.7351,204.938 33.5,187.5C 40.1794,175.467 47.8461,164.133 56.5,153.5 Z"/></g>
<g><path style="opacity:1" fill="#f75048" d="M 185.5,178.5 C 184.319,181.025 182.986,183.525 181.5,186C 176.011,186.984 170.845,186.151 166,183.5C 165.007,180.526 164.174,177.526 163.5,174.5C 163.833,173.833 164.167,173.167 164.5,172.5C 168.223,168.08 171.723,163.414 175,158.5C 178.78,165.063 182.28,171.729 185.5,178.5 Z"/></g>
<g><path style="opacity:1" fill="#f84f46" d="M 177.5,270.5 C 176.962,272.117 176.629,273.784 176.5,275.5C 159.604,277.516 143.104,281.183 127,286.5C 126.601,286.272 126.435,285.938 126.5,285.5C 133.407,249.703 146.407,216.37 165.5,185.5C 170.333,187.243 175.333,187.91 180.5,187.5C 176.724,215.081 175.724,242.748 177.5,270.5 Z"/></g>
<g><path style="opacity:1" fill="#9ed1f5" d="M 115.5,180.5 C 115.833,180.5 116.167,180.5 116.5,180.5C 112.668,205.151 108.835,229.818 105,254.5C 102.877,266.134 99.8774,277.467 96,288.5C 99.2042,273.96 102.204,259.294 105,244.5C 106.476,235.845 107.476,227.178 108,218.5C 80.2177,215.41 55.051,205.743 32.5,189.5C 32.3284,188.508 32.6618,187.842 33.5,187.5C 55.7351,204.938 81.0684,214.604 109.5,216.5C 110.865,204.38 112.865,192.38 115.5,180.5 Z"/></g>
<g><path style="opacity:1" fill="#a8d7f6" d="M 101.5,194.5 C 105.485,194.629 106.818,196.463 105.5,200C 99.5456,201.227 98.2123,199.394 101.5,194.5 Z"/></g>
<g><path style="opacity:1" fill="#fcfbfc" d="M 218.5,270.5 C 218.5,272.167 218.5,273.833 218.5,275.5C 214.504,282.306 208.504,286.14 200.5,287C 191.169,289.167 183.502,286.667 177.5,279.5C 176.766,278.292 176.433,276.959 176.5,275.5C 176.629,273.784 176.962,272.117 177.5,270.5C 188.041,260.366 200.041,258.199 213.5,264C 215.79,265.777 217.457,267.944 218.5,270.5 Z"/></g>
<g><path style="opacity:0.999" fill="#f1aba1" d="M 218.5,270.5 C 218.833,270.5 219.167,270.5 219.5,270.5C 221.294,271.233 222.961,272.233 224.5,273.5C 233.573,295.932 238.573,319.266 239.5,343.5C 234.167,342.5 228.833,341.5 223.5,340.5C 222.902,322.625 219.902,305.291 214.5,288.5C 214.5,287.833 214.5,287.167 214.5,286.5C 217.939,283.345 219.272,279.678 218.5,275.5C 218.5,273.833 218.5,272.167 218.5,270.5 Z"/></g>
<g><path style="opacity:0.994" fill="#66b0ef" d="M 284.5,347.5 C 269.422,346.971 254.422,345.637 239.5,343.5C 238.573,319.266 233.573,295.932 224.5,273.5C 225.952,272.698 227.618,272.198 229.5,272C 241.409,271.179 253.243,271.346 265,272.5C 276.981,296.089 283.481,321.089 284.5,347.5 Z"/></g>
<g><path style="opacity:1" fill="#825773" d="M 195.5,264.5 C 196.117,264.611 196.617,264.944 197,265.5C 197.373,267.698 197.873,269.865 198.5,272C 198.355,272.772 198.022,273.439 197.5,274C 193.221,275.244 188.888,275.577 184.5,275C 188.143,274.028 191.81,273.194 195.5,272.5C 196.205,269.911 196.205,267.244 195.5,264.5 Z"/></g>
<g><path style="opacity:0.998" fill="#f3aca1" d="M 176.5,275.5 C 176.433,276.959 176.766,278.292 177.5,279.5C 176.656,283.001 177.989,285.834 181.5,288C 184.071,289.454 186.738,290.62 189.5,291.5C 189.328,292.492 189.662,293.158 190.5,293.5C 194.453,307.55 196.786,321.883 197.5,336.5C 181.587,333.126 165.921,333.96 150.5,339C 144.112,342.861 137.446,346.194 130.5,349C 128.5,349.667 126.5,349.667 124.5,349C 123.944,348.617 123.611,348.117 123.5,347.5C 124.626,346.142 124.626,344.808 123.5,343.5C 116.092,348.719 113.426,347.052 115.5,338.5C 120.44,329.047 127.107,320.88 135.5,314C 125.917,319.764 118.917,327.931 114.5,338.5C 110.04,344.035 106.374,343.702 103.5,337.5C 104.167,337.5 104.5,337.167 104.5,336.5C 107.208,325.584 112.208,315.751 119.5,307C 112.288,309.234 104.955,311.4 97.5,313.5C 94.5547,314.468 91.5547,314.634 88.5,314C 87.9415,313.275 87.6082,312.442 87.5,311.5C 89.5712,307.921 92.2379,304.754 95.5,302C 105.333,295.419 115.666,289.919 126.5,285.5C 126.435,285.938 126.601,286.272 127,286.5C 143.104,281.183 159.604,277.516 176.5,275.5 Z"/></g>
<g><path style="opacity:1" fill="#642f51" d="M 218.5,275.5 C 219.272,279.678 217.939,283.345 214.5,286.5C 206.836,291.499 198.503,293.166 189.5,291.5C 186.738,290.62 184.071,289.454 181.5,288C 177.989,285.834 176.656,283.001 177.5,279.5C 183.502,286.667 191.169,289.167 200.5,287C 208.504,286.14 214.504,282.306 218.5,275.5 Z"/></g>
<g><path style="opacity:1" fill="#5d2649" d="M 214.5,288.5 C 219.902,305.291 222.902,322.625 223.5,340.5C 214.868,338.95 206.202,337.617 197.5,336.5C 196.786,321.883 194.453,307.55 190.5,293.5C 199.07,294.356 207.07,292.689 214.5,288.5 Z"/></g>
<g><path style="opacity:1" fill="#e5dce2" d="M 214.5,286.5 C 214.5,287.167 214.5,287.833 214.5,288.5C 207.07,292.689 199.07,294.356 190.5,293.5C 189.662,293.158 189.328,292.492 189.5,291.5C 198.503,293.166 206.836,291.499 214.5,286.5 Z"/></g>
<g><path style="opacity:1" fill="#9ed1f5" d="M 267.5,141.5 C 271.137,142.263 274.47,143.597 277.5,145.5C 252.795,139.964 239.295,149.964 237,175.5C 236.899,189.442 238.899,203.109 243,216.5C 248.904,235.053 256.07,253.053 264.5,270.5C 273.898,270.566 283.231,271.399 292.5,273C 297.717,273.743 302.717,275.076 307.5,277C 297.871,275.785 288.204,274.452 278.5,273C 274.5,272.333 270.5,272.333 266.5,273C 278.704,296.315 285.371,321.149 286.5,347.5C 285.833,347.5 285.167,347.5 284.5,347.5C 283.481,321.089 276.981,296.089 265,272.5C 253.243,271.346 241.409,271.179 229.5,272C 227.618,272.198 225.952,272.698 224.5,273.5C 222.961,272.233 221.294,271.233 219.5,270.5C 234.182,270.833 248.848,270.499 263.5,269.5C 254.545,252.142 247.045,234.142 241,215.5C 235.844,199.106 234.511,182.439 237,165.5C 241.261,149.957 251.427,141.957 267.5,141.5 Z"/></g>
<g><path style="opacity:1" fill="#a84f77" d="M 104.5,336.5 C 104.5,337.167 104.167,337.5 103.5,337.5C 98.554,337.738 94.2207,336.404 90.5,333.5C 92.5988,334.231 94.5988,334.231 96.5,333.5C 96.8998,325.994 99.5665,319.494 104.5,314C 106.067,312.924 107.734,312.091 109.5,311.5C 111,311.453 112,312.119 112.5,313.5C 108.401,317.263 105.067,321.596 102.5,326.5C 101.675,327.386 100.675,327.719 99.5,327.5C 98.5508,330.208 98.5508,332.874 99.5,335.5C 101.071,336.309 102.738,336.643 104.5,336.5 Z"/></g>
<g><path style="opacity:1" fill="#fac936" d="M 104.5,336.5 C 102.738,336.643 101.071,336.309 99.5,335.5C 98.5508,332.874 98.5508,330.208 99.5,327.5C 100.675,327.719 101.675,327.386 102.5,326.5C 105.067,321.596 108.401,317.263 112.5,313.5C 112,312.119 111,311.453 109.5,311.5C 107.734,312.091 106.067,312.924 104.5,314C 99.5665,319.494 96.8998,325.994 96.5,333.5C 94.5988,334.231 92.5988,334.231 90.5,333.5C 90.1667,332.5 89.5,331.833 88.5,331.5C 89.7191,324.613 92.7191,318.613 97.5,313.5C 104.955,311.4 112.288,309.234 119.5,307C 112.208,315.751 107.208,325.584 104.5,336.5 Z"/></g>
<g><path style="opacity:1" fill="#aa5087" d="M 143.5,321.5 C 144.239,321.369 144.906,321.536 145.5,322C 137.5,327.333 130.833,334 125.5,342C 124.833,342.667 124.167,342.667 123.5,342C 129.028,333.973 135.695,327.14 143.5,321.5 Z"/></g>
<g><path style="opacity:1" fill="#abd9f6" d="M 259.5,328.5 C 264.159,328.015 265.492,329.848 263.5,334C 258.728,334.81 257.395,332.977 259.5,328.5 Z"/></g>
<g><path style="opacity:1" fill="#ae5589" d="M 115.5,338.5 C 115.167,338.5 114.833,338.5 114.5,338.5C 118.917,327.931 125.917,319.764 135.5,314C 127.107,320.88 120.44,329.047 115.5,338.5 Z"/></g>
<g><path style="opacity:1" fill="#b05a71" d="M 88.5,331.5 C 89.5,331.833 90.1667,332.5 90.5,333.5C 89.5,333.5 88.5,333.5 87.5,333.5C 87.5,333.167 87.5,332.833 87.5,332.5C 87.5,331.833 87.8333,331.5 88.5,331.5 Z"/></g>
<g><path style="opacity:0.969" fill="#fecd30" d="M 87.5,333.5 C 88.5,333.5 89.5,333.5 90.5,333.5C 94.2207,336.404 98.554,337.738 103.5,337.5C 106.374,343.702 110.04,344.035 114.5,338.5C 114.833,338.5 115.167,338.5 115.5,338.5C 113.426,347.052 116.092,348.719 123.5,343.5C 124.626,344.808 124.626,346.142 123.5,347.5C 113.7,348.027 104.034,347.194 94.5,345C 88.6306,343.301 86.2973,339.468 87.5,333.5 Z"/></g>
</svg>
